<mxfile host="app.diagrams.net" modified="2020-09-21T08:10:32.929Z" agent="5.0 (Windows NT 10.0; Win64; x64) AppleWebKit/537.36 (KHTML, like Gecko) Chrome/85.0.4183.102 Safari/537.36" etag="dbwAsW3zaVYlxcjgh2pY" version="13.6.9" type="github">
  <diagram id="orhrCXApHmmekMVP7kzp" name="Page-1">
    <mxGraphModel dx="1422" dy="794" grid="1" gridSize="10" guides="1" tooltips="1" connect="1" arrows="1" fold="1" page="1" pageScale="1" pageWidth="827" pageHeight="1169" math="0" shadow="0">
      <root>
        <mxCell id="0" />
        <mxCell id="1" parent="0" />
        <mxCell id="DyYDBImGHkPbEC5F5WA4-1" value="&lt;font style=&quot;font-size: 15px&quot;&gt;ppui 模块&lt;/font&gt;" style="rounded=1;whiteSpace=wrap;html=1;strokeWidth=2;" vertex="1" parent="1">
          <mxGeometry x="80" y="68" width="250" height="192" as="geometry" />
        </mxCell>
        <mxCell id="DyYDBImGHkPbEC5F5WA4-2" value="&lt;font style=&quot;font-size: 15px&quot;&gt;start&lt;/font&gt;" style="shape=mxgraph.flowchart.terminator;strokeWidth=2;gradientColor=none;gradientDirection=north;fontStyle=0;html=1;" vertex="1" parent="1">
          <mxGeometry x="451.13" y="30" width="99.75" height="30" as="geometry" />
        </mxCell>
        <mxCell id="DyYDBImGHkPbEC5F5WA4-3" value="&lt;font style=&quot;font-size: 15px&quot;&gt;下载 bcp 数据&lt;/font&gt;" style="shape=mxgraph.flowchart.data;strokeWidth=2;gradientColor=none;gradientDirection=north;fontStyle=0;html=1;" vertex="1" parent="1">
          <mxGeometry x="421.5" y="111" width="159" height="80" as="geometry" />
        </mxCell>
        <mxCell id="DyYDBImGHkPbEC5F5WA4-4" value="&lt;font style=&quot;font-size: 15px&quot;&gt;结束&lt;/font&gt;" style="shape=mxgraph.flowchart.terminator;strokeWidth=2;gradientColor=none;gradientDirection=north;fontStyle=0;html=1;" vertex="1" parent="1">
          <mxGeometry x="440.25" y="650" width="120" height="30" as="geometry" />
        </mxCell>
        <mxCell id="DyYDBImGHkPbEC5F5WA4-5" value="" style="edgeStyle=orthogonalEdgeStyle;rounded=0;orthogonalLoop=1;jettySize=auto;html=1;strokeWidth=2;" edge="1" parent="1">
          <mxGeometry relative="1" as="geometry">
            <mxPoint x="499.25" y="61" as="sourcePoint" />
            <mxPoint x="499.25" y="111" as="targetPoint" />
          </mxGeometry>
        </mxCell>
        <mxCell id="DyYDBImGHkPbEC5F5WA4-6" value="&lt;font style=&quot;font-size: 15px&quot;&gt;实例1&lt;/font&gt;" style="ellipse;whiteSpace=wrap;html=1;strokeWidth=2;" vertex="1" parent="1">
          <mxGeometry x="90" y="80" width="80" height="55" as="geometry" />
        </mxCell>
        <mxCell id="DyYDBImGHkPbEC5F5WA4-7" value="&lt;font style=&quot;font-size: 15px&quot;&gt;实例2&lt;/font&gt;" style="ellipse;whiteSpace=wrap;html=1;strokeWidth=2;" vertex="1" parent="1">
          <mxGeometry x="90" y="191" width="80" height="55" as="geometry" />
        </mxCell>
        <mxCell id="DyYDBImGHkPbEC5F5WA4-8" value="&lt;font style=&quot;font-size: 15px&quot;&gt;实例3&lt;/font&gt;" style="ellipse;whiteSpace=wrap;html=1;strokeWidth=2;" vertex="1" parent="1">
          <mxGeometry x="240" y="123.5" width="80" height="55" as="geometry" />
        </mxCell>
        <mxCell id="DyYDBImGHkPbEC5F5WA4-9" value="" style="endArrow=classic;html=1;exitX=1;exitY=0.5;exitDx=0;exitDy=0;entryX=0.154;entryY=0.163;entryDx=0;entryDy=0;entryPerimeter=0;strokeWidth=2;" edge="1" parent="1" source="DyYDBImGHkPbEC5F5WA4-6" target="DyYDBImGHkPbEC5F5WA4-3">
          <mxGeometry width="50" height="50" relative="1" as="geometry">
            <mxPoint x="320" y="80" as="sourcePoint" />
            <mxPoint x="370" y="30" as="targetPoint" />
          </mxGeometry>
        </mxCell>
        <mxCell id="DyYDBImGHkPbEC5F5WA4-10" value="`" style="endArrow=classic;html=1;exitX=1;exitY=0.5;exitDx=0;exitDy=0;strokeWidth=2;entryX=0.095;entryY=0.5;entryDx=0;entryDy=0;entryPerimeter=0;" edge="1" parent="1" source="DyYDBImGHkPbEC5F5WA4-8" target="DyYDBImGHkPbEC5F5WA4-3">
          <mxGeometry width="50" height="50" relative="1" as="geometry">
            <mxPoint x="300.06" y="191" as="sourcePoint" />
            <mxPoint x="430" y="155" as="targetPoint" />
          </mxGeometry>
        </mxCell>
        <mxCell id="DyYDBImGHkPbEC5F5WA4-11" value="&lt;font style=&quot;font-size: 15px&quot;&gt;合并同类型日志&lt;/font&gt;" style="shape=mxgraph.flowchart.data;strokeWidth=2;gradientColor=none;gradientDirection=north;fontStyle=0;html=1;" vertex="1" parent="1">
          <mxGeometry x="420.75" y="240" width="159" height="80" as="geometry" />
        </mxCell>
        <mxCell id="DyYDBImGHkPbEC5F5WA4-12" value="" style="edgeStyle=orthogonalEdgeStyle;rounded=0;orthogonalLoop=1;jettySize=auto;html=1;strokeWidth=2;" edge="1" parent="1">
          <mxGeometry relative="1" as="geometry">
            <mxPoint x="500.5" y="190" as="sourcePoint" />
            <mxPoint x="500.5" y="239.9999999999999" as="targetPoint" />
          </mxGeometry>
        </mxCell>
        <mxCell id="DyYDBImGHkPbEC5F5WA4-13" value="&lt;font style=&quot;font-size: 15px&quot;&gt;对日志内容&lt;br&gt;打包、传输&lt;/font&gt;" style="shape=mxgraph.flowchart.data;strokeWidth=2;gradientColor=none;gradientDirection=north;fontStyle=0;html=1;" vertex="1" parent="1">
          <mxGeometry x="505" y="370" width="159" height="80" as="geometry" />
        </mxCell>
        <mxCell id="DyYDBImGHkPbEC5F5WA4-14" value="&lt;font style=&quot;font-size: 15px&quot;&gt;中转机&lt;/font&gt;" style="shape=mxgraph.flowchart.data;strokeWidth=2;gradientColor=none;gradientDirection=north;fontStyle=0;html=1;" vertex="1" parent="1">
          <mxGeometry x="420.75" y="520" width="159" height="80" as="geometry" />
        </mxCell>
        <mxCell id="DyYDBImGHkPbEC5F5WA4-17" value="" style="edgeStyle=elbowEdgeStyle;elbow=vertical;fontStyle=1;strokeColor=#003366;strokeWidth=2;html=1;" edge="1" parent="1">
          <mxGeometry x="179.49" y="-1245" width="100" height="100" as="geometry">
            <mxPoint x="499.74" y="600" as="sourcePoint" />
            <mxPoint x="499.49" y="650" as="targetPoint" />
            <Array as="points">
              <mxPoint x="499.99" y="600" />
            </Array>
          </mxGeometry>
        </mxCell>
        <mxCell id="DyYDBImGHkPbEC5F5WA4-18" value="" style="endArrow=classic;html=1;exitX=1;exitY=0.5;exitDx=0;exitDy=0;entryX=0.047;entryY=0.738;entryDx=0;entryDy=0;entryPerimeter=0;strokeWidth=2;" edge="1" parent="1" source="DyYDBImGHkPbEC5F5WA4-7" target="DyYDBImGHkPbEC5F5WA4-3">
          <mxGeometry width="50" height="50" relative="1" as="geometry">
            <mxPoint x="200" y="117.5" as="sourcePoint" />
            <mxPoint x="449.94399999999996" y="153" as="targetPoint" />
          </mxGeometry>
        </mxCell>
        <mxCell id="DyYDBImGHkPbEC5F5WA4-22" value="&lt;font style=&quot;font-size: 15px&quot;&gt;统计发送数据&lt;br&gt;信息，追加模式&lt;br&gt;写 sta 文件&lt;/font&gt;" style="shape=mxgraph.flowchart.data;strokeWidth=2;gradientColor=none;gradientDirection=north;fontStyle=0;html=1;" vertex="1" parent="1">
          <mxGeometry x="330" y="370" width="159" height="80" as="geometry" />
        </mxCell>
        <mxCell id="DyYDBImGHkPbEC5F5WA4-23" value="" style="endArrow=classic;html=1;exitX=0.5;exitY=1;exitDx=0;exitDy=0;exitPerimeter=0;entryX=0.569;entryY=-0.012;entryDx=0;entryDy=0;entryPerimeter=0;strokeColor=#0000FF;strokeWidth=2;" edge="1" parent="1" source="DyYDBImGHkPbEC5F5WA4-11" target="DyYDBImGHkPbEC5F5WA4-22">
          <mxGeometry width="50" height="50" relative="1" as="geometry">
            <mxPoint x="430" y="390" as="sourcePoint" />
            <mxPoint x="480" y="340" as="targetPoint" />
          </mxGeometry>
        </mxCell>
        <mxCell id="DyYDBImGHkPbEC5F5WA4-24" value="" style="endArrow=classic;html=1;entryX=0.623;entryY=-0.025;entryDx=0;entryDy=0;entryPerimeter=0;strokeColor=#FF0000;strokeWidth=2;" edge="1" parent="1" target="DyYDBImGHkPbEC5F5WA4-13">
          <mxGeometry width="50" height="50" relative="1" as="geometry">
            <mxPoint x="500" y="319.9999999999999" as="sourcePoint" />
            <mxPoint x="530" y="360" as="targetPoint" />
          </mxGeometry>
        </mxCell>
        <mxCell id="DyYDBImGHkPbEC5F5WA4-25" value="" style="endArrow=classic;html=1;exitX=0.415;exitY=1.013;exitDx=0;exitDy=0;exitPerimeter=0;entryX=0.63;entryY=-0.025;entryDx=0;entryDy=0;entryPerimeter=0;strokeColor=#FF0000;strokeWidth=2;" edge="1" parent="1" source="DyYDBImGHkPbEC5F5WA4-13" target="DyYDBImGHkPbEC5F5WA4-14">
          <mxGeometry width="50" height="50" relative="1" as="geometry">
            <mxPoint x="610" y="560" as="sourcePoint" />
            <mxPoint x="660" y="510" as="targetPoint" />
          </mxGeometry>
        </mxCell>
        <mxCell id="DyYDBImGHkPbEC5F5WA4-26" value="" style="endArrow=classic;html=1;exitX=0.406;exitY=1;exitDx=0;exitDy=0;exitPerimeter=0;entryX=0.5;entryY=0;entryDx=0;entryDy=0;entryPerimeter=0;strokeColor=#0000FF;strokeWidth=2;" edge="1" parent="1" source="DyYDBImGHkPbEC5F5WA4-22" target="DyYDBImGHkPbEC5F5WA4-14">
          <mxGeometry width="50" height="50" relative="1" as="geometry">
            <mxPoint x="490" y="590" as="sourcePoint" />
            <mxPoint x="490" y="550" as="targetPoint" />
          </mxGeometry>
        </mxCell>
        <mxCell id="DyYDBImGHkPbEC5F5WA4-29" value="&lt;font style=&quot;font-size: 15px&quot;&gt;网监&lt;/font&gt;" style="shape=mxgraph.flowchart.data;strokeWidth=2;gradientColor=none;gradientDirection=north;fontStyle=0;html=1;" vertex="1" parent="1">
          <mxGeometry x="659.75" y="520" width="159" height="80" as="geometry" />
        </mxCell>
        <mxCell id="DyYDBImGHkPbEC5F5WA4-30" value="" style="edgeStyle=orthogonalEdgeStyle;rounded=0;orthogonalLoop=1;jettySize=auto;html=1;strokeWidth=2;entryX=0.095;entryY=0.5;entryDx=0;entryDy=0;entryPerimeter=0;" edge="1" parent="1">
          <mxGeometry relative="1" as="geometry">
            <mxPoint x="567.0000000000002" y="560" as="sourcePoint" />
            <mxPoint x="671.8550000000002" y="560" as="targetPoint" />
          </mxGeometry>
        </mxCell>
        <mxCell id="DyYDBImGHkPbEC5F5WA4-31" value="图 1" style="text;html=1;strokeColor=none;fillColor=none;align=center;verticalAlign=middle;whiteSpace=wrap;rounded=0;fontSize=21;" vertex="1" parent="1">
          <mxGeometry x="481" y="700" width="49" height="20" as="geometry" />
        </mxCell>
      </root>
    </mxGraphModel>
  </diagram>
</mxfile>
